#!OML:ASF F:\VICON\USERDATA\INSTALL\rory3\rory3.ASF
:FULLY-SPECIFIED
:DEGREES
82
root 0.8068281958065171 17.957755369992046 14.895943385560441 -2.2169068496228608 -7.97620852950733 -0.43131980344002097
lfemur -4.263441971087148 -1.7298046826698024 -23.300972983115614
ltibia 33.58596351031999
lfoot -5.532984055511548 -3.4042552940002273
ltoes -10.250084270753044
rfemur -19.2614562662072 0.8771237014448845 24.191335181995207
rtibia 46.34931676213468
rfoot -0.09905467015096647 -11.450090121769689
rtoes 7.792247788810192
lowerback 11.201253083693949 1.1525332840066531 0.320069436158152
upperback 0.19050816623682315 1.5587583275655361 0.7714908631112183
thorax -6.136601454586017 0.7117447269893591 0.12464349435928262
lowerneck -15.810276138567534 -2.784974473547042 -2.6242680574994965
upperneck 20.451739004591378 -3.531906583561158 1.6855746975405081
head 9.123612079327721 -1.6751494190318679 0.4518979364695202
lclavicle -4.54626802199369e-16 -7.773546820392889e-16
lhumerus -35.15051217586521 4.305901754707728 78.94797188419628
lradius 32.660568766270686
lwrist 8.415749140797024
lhand -27.83418392019503 20.244433162124974
lfingers 7.12502
lthumb -1.508430389404253 49.516899632484815
rclavicle -4.582571261733325e-16 -7.805984899879969e-16
rhumerus -27.74269370056175 -16.149041934206345 -79.48490611344751
rradius 26.722287528335883
rwrist 2.8224945353672455
rhand -18.104927149742853 22.695164727466857
rfingers 7.12502
rthumb 8.22913717926277 -7.151491892548376
83
root 0.7146451908606599 17.70923102380352 16.40311104746345 -2.155258766796227 -6.37740260673505 -0.4044788509592565
lfemur -3.2063688583128096 -1.5587869210405982 -23.227199243330254
ltibia 34.847574441175446
lfoot -4.900163887549928 -3.3134799501718106
ltoes -10.304255279890025
rfemur -20.72263241907539 0.14481206879162611 24.43094106306129
rtibia 41.043808397213745
rfoot 0.032431162921872314 -12.206763494806047
rtoes 8.135964377069023
lowerback 11.970783704418784 0.8573480007173615 0.10388859911934056
upperback 0.09715612634945585 1.1871279663297214 0.9564051135408573
thorax -6.265932777049142 0.5281916911365543 0.4601503745159772
lowerneck -15.88967753784647 -2.7739062971533563 -2.8299127451357817
upperneck 20.481811209023807 -3.5109315841113893 1.8467124785673665
head 9.13434526091502 -1.664209325093068 0.5669707781772644
lclavicle -4.537645490343859e-16 -7.766782078629083e-16
lhumerus -34.47335171169517 3.9729897502674723 79.1042326037249
lradius 32.584627821756456
lwrist 8.567233038562588
lhand -27.813741638394085 20.4581565973086
lfingers 7.12502
lthumb -1.4311746776575682 49.85673917790846
rclavicle -4.581923293660621e-16 -7.805220757492377e-16
rhumerus -28.25645405970975 -16.510700263828063 -79.27536550948302
rradius 26.29967494852069
rwrist 3.049735079539612
rhand -17.8885496581542 22.231000054684916
rfingers 7.12502
rthumb 8.450749058827286 -7.5942254905979345
84
root 0.7019846033413453 17.582946853190865 17.391056642617276 -2.1559339527231 -5.929333527522271 -0.4503002922066437
lfemur -2.1326362849289087 -0.7550724420955347 -23.09537544661203
ltibia 36.18419734062589
lfoot -5.498983925664689 -3.3296770437120307
ltoes -10.775690696666997
rfemur -21.6124915883536 0.4192218007286934 24.558956768767406
rtibia 35.477171285042296
rfoot -0.30049299565101784 -12.81460576961864
rtoes 8.120039444649112
lowerback 12.416331363544261 0.6772845165595934 -0.26801982775475297
upperback 0.15638960089997053 0.9150839388107594 1.1000197385843606
thorax -6.202304936168934 0.38954640773913235 0.790924759386298
lowerneck -15.973741077154385 -2.7781813382482685 -2.996789949307555
upperneck 20.456963379944092 -3.5144561778132886 2.027779051192098
head 9.12948790305453 -1.6658096075860342 0.6901677959580691
lclavicle -4.537415938859548e-16 -7.766523386684693e-16
lhumerus -33.86767281971275 3.654196916356031 79.27795775950851
lradius 32.477803036606886
lwrist 8.822254745334702
lhand -27.786257534979413 20.617850679607006
lfingers 7.12502
lthumb -1.3886533996302344 50.05919870818472
rclavicle -4.584874223463724e-16 -7.808338704259184e-16
rhumerus -28.781057468464002 -16.681321097013825 -79.00134897907424
rradius 25.97147742985706
rwrist 2.927991967630827
rhand -17.752332726055567 21.91223293671281
rfingers 7.12502
rthumb 8.604748588663236 -7.87587965980875
85
root 0.5428740474263798 17.683576915470027 18.479612457601714 -1.7213805206333106 -5.140640840060996 -0.18092355599920484
lfemur -1.0233595136533626 0.11112014785746926 -23.424425061278978
ltibia 37.05754114757349
lfoot -6.417499487081014 -3.9281197753158654
ltoes -11.123494214057974
rfemur -21.414075977486817 1.2368641272986678 23.781999775537287
rtibia 30.12739580862265
rfoot -1.1340924731251354 -12.857084423635877
rtoes 8.085330653570786
lowerback 11.653898135365404 0.5345680865986071 -0.5954633287683917
upperback 0.3264191760344672 0.626384416104839 1.1491793011596738
thorax -5.951679415384432 0.2481822604053707 1.1017763630703183
lowerneck -16.06330181249177 -2.789442910423687 -3.1099633506694677
upperneck 20.372151507658128 -3.5302492337260203 2.2353343928533085
head 9.111093982181258 -1.6711591186458206 0.8211389775979392
lclavicle -4.549617765996776e-16 -7.775873715770468e-16
lhumerus -33.55205382688558 3.0895136400388834 79.39164726421349
lradius 32.507457634894635
lwrist 9.066042994534087
lhand -27.75150697210075 20.71908654116388
lfingers 7.12502
lthumb -1.3819827986438642 50.11258592158417
rclavicle -4.58197444127899e-16 -7.806865869683336e-16
rhumerus -29.285368043032037 -16.679113232397125 -78.62732770469458
rradius 25.655688001226697
rwrist 2.7665734751369744
rhand -17.66546081447854 21.755263719287633
rfingers 7.12502
rthumb 8.691946468824822 -7.9820125891140075
86
root 0.32471990829746805 17.825479406934853 18.868804001843422 -1.0258911969405513 -2.8602767261861057 -0.5488761958120416
lfemur -0.5692322573018824 0.2471257533571205 -23.130832199030955
ltibia 38.3034394287134
lfoot -7.032825402286086 -4.8656196998388666
ltoes -11.501984398610007
rfemur -20.549514484872468 2.9061430518539777 22.88156323508376
rtibia 25.7233318372344
rfoot -2.635925694472392 -12.336755662986132
rtoes 8.207339613507738
lowerback 9.975660134321034 0.023003480349096606 -0.5547472435868694
upperback 0.366645876956616 -0.04555380890938787 1.2471714385411263
thorax -5.799905483866308 -0.062231859621319385 1.479168909763108
lowerneck -16.1358487108841 -2.803619724449943 -3.180727587222596
upperneck 20.249271706823773 -3.5534450219877445 2.4538432836520094
head 9.084314503773422 -1.6774545277036954 0.9503672842318899
lclavicle -4.569673833503357e-16 -7.791303266775575e-16
lhumerus -33.23069539340697 2.530818625507642 79.43770624312305
lradius 32.566669734315774
lwrist 9.258711984252006
lhand -27.735996814463224 20.727763207494984
lfingers 7.12502
lthumb -1.411791958678877 50.02632518809414
rclavicle -4.566424164839496e-16 -7.795395041980714e-16
rhumerus -29.756339774080086 -16.605286652086466 -78.25840326631304
rradius 25.373777246243485
rwrist 2.8075529132412838
rhand -17.59081326512692 21.70401706367567
rfingers 7.12502
rthumb 8.7396173455624 -7.983682590782803
87
root 0.16830527972145165 17.7332521318873 20.357334423645323 -0.6043099341442093 -0.9372644971613455 -0.9370858318064901
lfemur -0.6290899193608972 0.8952505754358313 -22.333760044725068
ltibia 40.098183152213124
lfoot -5.995319290391472 -5.431581882473311
ltoes -11.207583727194738
rfemur -19.946780533503606 5.763790194964926 22.027335662250476
rtibia 23.00186030095431
rfoot -4.107846138879622 -11.367234971964733
rtoes 8.610166266189232
lowerback 8.705834288253312 -0.5818848274874047 -0.3132569975704371
upperback 0.20764965641840247 -0.7850387754949821 1.4397328552190904
thorax -5.8032237506169935 -0.40882304767930056 1.8881719664711296
lowerneck -16.186347273988023 -2.8343582033259516 -3.2685139358153554
upperneck 20.129424484897562 -3.6053606684074766 2.7141748105454937
head 9.059573529392482 -1.6930567942201349 1.0867129410984613
lclavicle -4.589631192492834e-16 -7.806733627794716e-16
lhumerus -32.684239625461544 2.4107595338672936 79.42885059989632
lradius 32.423307230081164
lwrist 9.3823014289728
lhand -27.762333458308365 20.63743543416654
lfingers 7.12502
lthumb -1.4490916266624914 49.91371108011785
rclavicle -4.551531547153739e-16 -7.784350802138846e-16
rhumerus -30.09506278371477 -16.48081566521378 -77.83721596640129
rradius 24.972352858365614
rwrist 3.0946994372531282
rhand -17.510010106196344 21.74726132250443
rfingers 7.12502
rthumb 8.78129737072929 -7.931963040936054
88
root -0.0913137396483697 17.735816964328983 20.42596106062096 -1.3626671965611485 0.3754532589318438 -1.5824825246742928
lfemur -1.8810207452499421 1.5078200020633492 -20.73121650168234
ltibia 42.878637489451656
lfoot -6.256206115774238 -5.764653126254178
ltoes -12.143219092002138
rfemur -19.244386170071454 8.195698795402038 22.06226617343619
rtibia 21.75065297373044
rfoot -5.09575437958666 -10.203080135368278
rtoes 9.16365929492158
lowerback 8.887807889986378 -0.9475876889143167 -0.047316511486642066
upperback -0.008727842091860907 -1.1639286378751597 1.684753534283874
thorax -5.951616477181622 -0.602691770153027 2.1689537078033565
lowerneck -16.218998702003102 -2.8689937786161956 -3.339791870601683
upperneck 20.043336226243586 -3.6644864021821126 2.932630216271682
head 9.045976975732332 -1.7105822803775628 1.1928845001889554
lclavicle -4.595144500688476e-16 -7.81102041449605e-16
lhumerus -32.07862281989875 2.6918380070741095 79.35604459888624
lradius 32.08638806285473
lwrist 9.398571081934172
lhand -27.82683639579546 20.495214286456086
lfingers 7.12502
lthumb -1.5084506888014062 49.788227381267355
rclavicle -4.55063531651185e-16 -7.784021325603683e-16
rhumerus -30.147709079559597 -16.218645999979454 -77.54344636269931
rradius 24.495445337510887
rwrist 3.5590617347177815
rhand -17.433489770892525 21.92118633327893
rfingers 7.12502
rthumb 8.837899785864257 -7.796869875755801
89
root -0.08660334993099411 17.508029243326323 20.94553959892007 -2.055923446985371 0.6360613806855944 -1.3122158972130613
lfemur -2.8215607937691773 2.2693849239960233 -20.167869115963594
ltibia 44.94281525089417
lfoot -5.650995893529388 -5.245371541130115
ltoes -12.074163784096585
rfemur -20.142873851482832 7.129884065778467 22.982233399736163
rtibia 24.23054106410698
rfoot -5.452019499380631 -9.007319995443906
rtoes 9.801620527164614
lowerback 10.173083110581684 -0.8059041756425016 -0.1941103279699703
upperback -0.08129351124440364 -1.001261967156071 1.8305544643728149
thorax -6.005570739982275 -0.5369134899680708 2.1887012909209216
lowerneck -16.267582183971104 -2.8811754564748653 -3.3522947229374562
upperneck 20.01498552897099 -3.683572361351943 3.0226077593095964
head 9.052180684154232 -1.7142982135602995 1.2359108086981956
lclavicle -4.586123859048279e-16 -7.804134758052695e-16
lhumerus -31.637704640858203 2.949172147988444 79.26942396805993
lradius 31.72644372681379
lwrist 9.310571901674159
lhand -27.89988312164939 20.377473431229923
lfingers 7.12502
lthumb -1.5753051261957243 49.69051578235198
rclavicle -4.569126349812898e-16 -7.798131833598269e-16
rhumerus -30.396677554688907 -16.525835475576542 -77.02288445131951
rradius 23.908078869742596
rwrist 4.19877359735632
rhand -17.389657979940228 22.19586313930664
rfingers 7.12502
rthumb 8.897040910299715 -7.586112231369364
